<?xml version="1.0" encoding="UTF-8" standalone="no"?>
<svg
   xmlns:dc="http://purl.org/dc/elements/1.1/"
   xmlns:cc="http://creativecommons.org/ns#"
   xmlns:rdf="http://www.w3.org/1999/02/22-rdf-syntax-ns#"
   xmlns:svg="http://www.w3.org/2000/svg"
   xmlns="http://www.w3.org/2000/svg"
   xmlns:sodipodi="http://sodipodi.sourceforge.net/DTD/sodipodi-0.dtd"
   xmlns:inkscape="http://www.inkscape.org/namespaces/inkscape"
   version="1.1"
   id="Слой_1"
   x="0px"
   y="0px"
   viewBox="0 0 128 102"
   xml:space="preserve"
   sodipodi:docname="Application Group Icon.svg"
   width="128"
   height="102"
   inkscape:version="1.0.2 (e86c870879, 2021-01-15, custom)"><metadata
   id="metadata27"><rdf:RDF><cc:Work
       rdf:about=""><dc:format>image/svg+xml</dc:format><dc:type
         rdf:resource="http://purl.org/dc/dcmitype/StillImage" /><dc:title></dc:title></cc:Work></rdf:RDF></metadata><defs
   id="defs25" /><sodipodi:namedview
   pagecolor="#ffffff"
   bordercolor="#666666"
   borderopacity="1"
   objecttolerance="10"
   gridtolerance="10"
   guidetolerance="10"
   inkscape:pageopacity="0"
   inkscape:pageshadow="2"
   inkscape:window-width="1920"
   inkscape:window-height="1010"
   id="namedview23"
   showgrid="false"
   inkscape:zoom="6.6015625"
   inkscape:cx="64"
   inkscape:cy="51.881657"
   inkscape:window-x="-7"
   inkscape:window-y="-7"
   inkscape:window-maximized="1"
   inkscape:current-layer="Слой_1" />
<style
   type="text/css"
   id="style2">
	.st0{fill:#232323;}
</style>
<g
   id="g20"
   transform="matrix(0.98712309,0,0,0.98530754,1.3504367,-11.637606)">
	<path
   class="st0"
   d="M 105.8,31.7 H 2 c -1.6,0 -3,1.3 -3,3 v 77.5 c 0,1.6 1.3,3 3,3 h 103.8 c 1.6,0 3,-1.3 3,-3 V 34.7 c -0.1,-1.7 -1.4,-3 -3,-3 z m -3,6 v 71.6 H 4.9 V 37.7 Z"
   id="path4" />
	<path
   class="st0"
   d="m 12.7,55 h 81.8 c 1.6,0 3,-1.3 3,-3 0,-1.6 -1.3,-3 -3,-3 H 12.7 c -1.6,0 -3,1.3 -3,3 0.1,1.7 1.4,3 3,3 z"
   id="path6" />
	<path
   class="st0"
   d="m 13.7,46.6 c 1.8,0 3.3,-1.5 3.3,-3.3 0,-1.8 -1.5,-3.3 -3.3,-3.3 -1.8,0 -3.3,1.5 -3.3,3.3 0,1.8 1.5,3.3 3.3,3.3 z"
   id="path8" />
	<circle
   class="st0"
   cx="22.299999"
   cy="43.5"
   r="3.3"
   id="circle10" />
	<path
   class="st0"
   d="m 30.9,47 c 1.8,0 3.3,-1.5 3.3,-3.3 0,-1.8 -1.5,-3.3 -3.3,-3.3 -1.8,0 -3.3,1.5 -3.3,3.3 0,1.8 1.5,3.3 3.3,3.3 z"
   id="path12" />
	<path
   class="st0"
   d="M 115.5,21.7 H 11.7 c -1.6,0 -3,1.3 -3,3 0,1.6 1.3,3 3,3 h 100.8 v 74.5 c 0,1.6 1.3,3 3,3 1.6,0 3,-1.3 3,-3 V 24.7 c 0,-1.7 -1.4,-3 -3,-3 z"
   id="path14" />
	<path
   class="st0"
   d="M 125.3,12.1 H 21.6 c -1.6,0 -3,1.3 -3,3 0,1.6 1.3,3 3,3 h 100.8 v 74.5 c 0,1.6 1.3,3 3,3 1.6,0 3,-1.3 3,-3 V 15.1 c -0.1,-1.7 -1.4,-3 -3.1,-3 z"
   id="path16" />
	<path
   class="st0"
   d="m 73,70 v -0.1 c 0,-0.1 -0.1,-0.3 -0.1,-0.4 L 72.8,69.4 C 72.7,69.3 72.7,69.2 72.6,69.1 L 72.5,69 C 72.4,68.9 72.3,68.8 72.2,68.7 L 72.1,68.6 C 72,68.5 71.9,68.5 71.8,68.4 L 55.1,58.8 c -0.8,-0.5 -1.8,-0.5 -2.6,0 L 36,68.3 v 0.1 c -0.1,0.1 -0.2,0.1 -0.3,0.2 l -0.1,0.1 c -0.1,0.1 -0.2,0.2 -0.3,0.4 -0.1,0.1 -0.1,0.2 -0.2,0.3 L 35,69.5 c -0.1,0.1 -0.1,0.3 -0.1,0.3 v 0.1 c 0,0.1 -0.1,0.3 -0.1,0.4 v 20.6 c 0,0.9 0.5,1.7 1.2,2.2 l 16.6,10.4 c 0,0 0,0 0.1,0 l 0.2,0.1 c 0.2,0.1 0.3,0.1 0.5,0.2 0.2,0 0.4,0.1 0.6,0.1 0.2,0 0.4,0 0.6,-0.1 h 0.1 c 0.2,0 0.3,-0.1 0.5,-0.2 0,0 0.1,0 0.1,0 L 72,93.1 c 0.8,-0.5 1.2,-1.3 1.2,-2.2 V 70.6 70.4 C 73,70.2 73,70.1 73,70 Z M 51.3,82.4 V 96.6 L 39.9,89.4 V 75.3 Z M 65.4,70.7 53.9,78 42.4,70.7 53.9,64 Z m 2.5,4.6 V 89.5 L 56.5,96.7 V 82.4 Z m 3.6,-5.9 c 0,0 0,0 0,0 z m -0.2,-0.2 z m -35.4,0.6 z m -0.1,0.7 c 0,0 0,0 0,0 z"
   id="path18" />
</g>
</svg>
