<?xml version="1.0" encoding="UTF-8" standalone="no"?>
<svg
   xmlns:dc="http://purl.org/dc/elements/1.1/"
   xmlns:cc="http://creativecommons.org/ns#"
   xmlns:rdf="http://www.w3.org/1999/02/22-rdf-syntax-ns#"
   xmlns:svg="http://www.w3.org/2000/svg"
   xmlns="http://www.w3.org/2000/svg"
   xmlns:sodipodi="http://sodipodi.sourceforge.net/DTD/sodipodi-0.dtd"
   xmlns:inkscape="http://www.inkscape.org/namespaces/inkscape"
   version="1.1"
   id="Слой_1"
   x="0px"
   y="0px"
   viewBox="0 0 128 97"
   xml:space="preserve"
   sodipodi:docname="Application Icons.svg"
   width="128"
   height="97"
   inkscape:version="1.0.2 (e86c870879, 2021-01-15, custom)"><metadata
   id="metadata23"><rdf:RDF><cc:Work
       rdf:about=""><dc:format>image/svg+xml</dc:format><dc:type
         rdf:resource="http://purl.org/dc/dcmitype/StillImage" /><dc:title></dc:title></cc:Work></rdf:RDF></metadata><defs
   id="defs21" /><sodipodi:namedview
   pagecolor="#ffffff"
   bordercolor="#666666"
   borderopacity="1"
   objecttolerance="10"
   gridtolerance="10"
   guidetolerance="10"
   inkscape:pageopacity="0"
   inkscape:pageshadow="2"
   inkscape:window-width="1920"
   inkscape:window-height="1010"
   id="namedview19"
   showgrid="false"
   inkscape:zoom="6.6015625"
   inkscape:cx="64"
   inkscape:cy="57.940828"
   inkscape:window-x="-7"
   inkscape:window-y="-7"
   inkscape:window-maximized="1"
   inkscape:current-layer="Слой_1" />
<style
   type="text/css"
   id="style2">
	.st0{fill:#232323;}
</style>
<g
   id="g16"
   transform="translate(0.15147929,-14.84497)">
	<path
   class="st0"
   d="M 125,15 H 3 c -1.7,0 -3,1.4 -3,3 v 91.1 c 0,1.7 1.4,3 3,3 h 122 c 1.7,0 3,-1.4 3,-3 v -91 C 127.9,16.3 126.6,15 125,15 Z m -3,91.2 H 5.9 V 21.1 h 116 v 85.1 z"
   id="path4" />
	<path
   class="st0"
   d="m 15.6,41.4 h 96.1 c 1.7,0 3,-1.4 3,-3 0,-1.7 -1.4,-3 -3,-3 H 15.6 c -1.7,0 -3,1.4 -3,3 0.1,1.7 1.4,3 3,3 z"
   id="path6" />
	<path
   class="st0"
   d="m 16.8,31.5 c 1.8,0 3.4,-1.5 3.4,-3.4 0,-1.9 -1.5,-3.4 -3.4,-3.4 -1.9,0 -3.4,1.5 -3.4,3.4 0,1.9 1.5,3.4 3.4,3.4 z"
   id="path8" />
	<path
   class="st0"
   d="m 26.9,31.8 c 1.9,0 3.4,-1.5 3.4,-3.4 0,-1.9 -1.6,-3.4 -3.4,-3.4 -1.8,0 -3.4,1.5 -3.4,3.4 0,1.9 1.5,3.4 3.4,3.4 z"
   id="path10" />
	<circle
   class="st0"
   cx="37"
   cy="28.6"
   r="3.4000001"
   id="circle12" />
	<path
   class="st0"
   d="m 85.9,59.4 c 0,0 0,0 0,0 0,0 0,0 0,0 0,-0.1 -0.1,-0.2 -0.1,-0.2 v 0 C 85.7,59.1 85.6,59 85.6,58.9 L 85,58.2 C 84.9,58.1 84.8,58.1 84.7,58 L 65.2,46.8 c -0.8,-0.5 -1.8,-0.5 -2.5,0 l -19.2,11 -0.2,0.2 c -0.1,0.1 -0.2,0.2 -0.3,0.2 l -0.2,0.1 c -0.1,0.1 -0.2,0.2 -0.3,0.3 l -0.1,0.1 c -0.1,0.1 -0.1,0.2 -0.2,0.4 l -0.1,0.1 v 0.1 c 0,0.1 0,0.3 -0.1,0.4 0,0 0,0.1 0,0.1 V 84 c 0,0.8 0.4,1.6 1.2,2.2 l 19.4,12.1 h 0.1 l 0.3,0.2 c 0.1,0 0.2,0.1 0.2,0.1 0.1,0 0.2,0.1 0.3,0.1 0.1,0 0.2,0 0.3,0.1 0.1,0 0.2,0 0.2,0 0.2,0 0.4,0 0.5,-0.1 l 0.1,-0.1 h 0.2 c 0,0 0,0 0.2,-0.1 0.1,0 0.1,-0.1 0.2,-0.1 L 65.4,98.3 85,86.2 C 85.8,85.7 86.2,85 86.2,84 V 60.2 C 86,60 86,59.8 86,59.5 V 59.4 Z M 61.4,91.7 47,82.6 V 64.8 l 14.4,9 z M 64,69.5 49.5,60.3 64,51.9 78.5,60.3 Z m 16.9,13.2 -14.4,9.1 v -18 l 14.4,-9 z"
   id="path14" />
</g>
</svg>
