<?xml version="1.0" encoding="utf-8"?>
<!-- Generator: Adobe Illustrator 24.0.1, SVG Export Plug-In . SVG Version: 6.00 Build 0)  -->
<svg version="1.1" id="Слой_1" xmlns="http://www.w3.org/2000/svg" xmlns:xlink="http://www.w3.org/1999/xlink" x="0px" y="0px"
	 viewBox="0 0 128 128" style="enable-background:new 0 0 128 128;" xml:space="preserve">
<style type="text/css">
	.st0{fill:#3B3B3B;}
</style>
<path class="st0" d="M121.5,40.5c0.8-0.5,1.4-1.4,1.4-2.4V14.9c0-0.2-0.1-0.4-0.1-0.5c0-0.1,0-0.2-0.1-0.4v-0.2l-0.3-0.3
	c-0.1-0.2-0.2-0.3-0.4-0.4l-0.2-0.2L103,2.5c-0.8-0.5-1.9-0.5-2.8,0L81.8,13c-0.3,0.1-0.5,0.3-0.7,0.6L80.7,14v0.1
	c-0.1,0.1-0.1,0.3-0.1,0.4c0,0.1-0.1,0.3-0.1,0.5v9.1l-11.8-9.3v9.6H49.4V13.9c0-0.2-0.1-0.4-0.1-0.5c0-0.1,0-0.2-0.1-0.4v-0.2
	L49,12.6c-0.1-0.2-0.2-0.3-0.4-0.4l-0.2-0.2L29.5,1.4c-0.8-0.5-1.9-0.5-2.8,0L8.4,12c-0.3,0.1-0.5,0.3-0.7,0.6L7.3,13v0.2
	c-0.1,0.1-0.1,0.3-0.1,0.4c0,0.1-0.1,0.3-0.1,0.5v23.2c0,1,0.5,1.9,1.3,2.3l16.6,10L15,62.4h9.8v15.8L8.4,87.5
	c-0.3,0.1-0.5,0.3-0.7,0.6l-0.4,0.4v0.2c-0.1,0.1-0.1,0.3-0.1,0.4c0,0.1-0.1,0.3-0.1,0.5v23.2c0,1,0.5,1.9,1.3,2.3l18.4,11.6
	c0.3,0.3,0.6,0.3,0.9,0.3c0.1,0,0.3,0.1,0.5,0.1c0.1,0,0.5,0,0.8-0.2c0,0,0,0,0.1,0h0.2L48,115.1c0.8-0.5,1.3-1.4,1.3-2.4v-7.5H68
	v9.2l12.1-9.5l0.3,0v7.8c0,1,0.5,1.9,1.3,2.3l18.4,11.6c0.3,0.3,0.6,0.3,0.9,0.3c0.1,0,0.3,0.1,0.5,0.1c0.1,0,0.5,0,0.8-0.2
	c0,0,0,0,0.1,0h0.2l18.7-11.7c0.8-0.5,1.3-1.4,1.3-2.4V89.4c0-0.2-0.1-0.4-0.1-0.5c0-0.1,0-0.2-0.1-0.4v-0.2l-0.3-0.2
	c-0.1-0.2-0.2-0.3-0.4-0.4l-0.2-0.2L105,78V63h9.8l-9.5-12.2l0-0.6L121.5,40.5z M117.3,36.7l-12.9,8.1V28.6l12.9-8.1V36.7z
	 M101.6,8.1l13.2,7.5l-13.2,8.3l-13.2-8.3L101.6,8.1z M85.9,20.4l12.9,8.1v16.1l-12.9-8.1V20.4z M28.2,7l13.2,7.5l-13.2,8.3L15,14.5
	L28.2,7z M43.9,19.4v16.1l-13,8.1V27.6L43.9,19.4z M12.4,35.6V19.4l13,8.1v16.1L12.4,35.6z M25.4,119.2l-12.9-8.1V94.9l12.9,8.1
	V119.2z M28.2,98.2l-13.1-8.2l13.1-7.5l13.1,7.5L28.2,98.2z M43.9,111.1l-13,8.1v-16.1l13-8.1V111.1z M98.8,119.2l-12.9-8.1V94.9
	l12.9,8.1V119.2z M117.3,111.1l-12.9,8.1v-16.1l12.9-8.1V111.1z M114.8,90l-13.2,8.2l-13.1-8.2l13.2-7.5L114.8,90z M97.9,78.3
	l-16,9.2c-0.3,0.1-0.5,0.3-0.7,0.6l-0.4,0.4v0.2c0,0.1-0.1,0.2-0.1,0.4c-0.1,0.1-0.1,0.3-0.1,0.5v8.2l-0.6,0l-12-9.5V98H49.7
	l-0.3-8.2c0-0.2,0-0.5-0.2-0.8c0,0,0,0,0,0c0-0.1,0-0.2-0.1-0.4v-0.2l-0.3-0.2c-0.1-0.2-0.2-0.3-0.4-0.4l-0.2-0.2l-16.4-9.4V62.4H41
	L31,49.6l17.1-10c0.8-0.5,1.3-1.4,1.3-2.4v-5.4h19.3v9.1l11.6-9v6.5c0,1,0.5,1.9,1.3,2.3l16.3,9.9v0.9L88.8,63h9.1V78.3z"/>
</svg>
