<?xml version="1.0" encoding="UTF-8" standalone="no"?>
<svg
   xmlns:dc="http://purl.org/dc/elements/1.1/"
   xmlns:cc="http://creativecommons.org/ns#"
   xmlns:rdf="http://www.w3.org/1999/02/22-rdf-syntax-ns#"
   xmlns:svg="http://www.w3.org/2000/svg"
   xmlns="http://www.w3.org/2000/svg"
   xmlns:sodipodi="http://sodipodi.sourceforge.net/DTD/sodipodi-0.dtd"
   xmlns:inkscape="http://www.inkscape.org/namespaces/inkscape"
   version="1.1"
   id="Слой_1"
   x="0px"
   y="0px"
   viewBox="0 0 128 128"
   style="enable-background:new 0 0 128 128;"
   xml:space="preserve"
   sodipodi:docname="Deployment Icon.svg"
   inkscape:version="1.0.2 (e86c870879, 2021-01-15, custom)"><metadata
   id="metadata11"><rdf:RDF><cc:Work
       rdf:about=""><dc:format>image/svg+xml</dc:format><dc:type
         rdf:resource="http://purl.org/dc/dcmitype/StillImage" /><dc:title></dc:title></cc:Work></rdf:RDF></metadata><defs
   id="defs9" /><sodipodi:namedview
   pagecolor="#ffffff"
   bordercolor="#666666"
   borderopacity="1"
   objecttolerance="10"
   gridtolerance="10"
   guidetolerance="10"
   inkscape:pageopacity="0"
   inkscape:pageshadow="2"
   inkscape:window-width="2160"
   inkscape:window-height="1145"
   id="namedview7"
   showgrid="false"
   inkscape:zoom="6.6015625"
   inkscape:cx="64"
   inkscape:cy="57.940828"
   inkscape:window-x="-2167"
   inkscape:window-y="-3"
   inkscape:window-maximized="1"
   inkscape:current-layer="Слой_1" />
<style
   type="text/css"
   id="style2">
	.st0{fill:#232323;}
</style>
<path
   class="st0"
   d="m 84.457396,13.3 -0.4,-0.2 -2.7,6.2 0.5,0.2 c 24.600004,8.9 38.900004,34.9 33.200004,60.4 -6.2,28.1 -34.200004,46 -62.300004,39.7 -13.6,-3 -25.2,-11.2 -32.8,-22.9 -7.5,-11.8 -9.9999995,-25.8 -7,-39.4 5.1,-23 25,-39.7 48.4,-40.9 l -0.1,10.6 15.5,-13.1 -15.2,-13.3 -0.1,9.1 c -26.6,1.2 -49.3,20.1 -55.0999995,46.3 -3.4,15.3 -0.6,31.1 7.8999995,44.4 8.5,13.3 21.6,22.5 37,25.9 4.3,0.9 8.6,1.4 12.8,1.4 11.1,0 22,-3.2 31.7,-9.3 13.300004,-8.5 22.500004,-21.6 25.900004,-37 6.4,-28.6 -9.6,-57.9 -37.200004,-68.1 z"
   id="path4" />
</svg>
