<?xml version="1.0" encoding="UTF-8" standalone="no"?>
<svg
   xmlns:dc="http://purl.org/dc/elements/1.1/"
   xmlns:cc="http://creativecommons.org/ns#"
   xmlns:rdf="http://www.w3.org/1999/02/22-rdf-syntax-ns#"
   xmlns:svg="http://www.w3.org/2000/svg"
   xmlns="http://www.w3.org/2000/svg"
   xmlns:sodipodi="http://sodipodi.sourceforge.net/DTD/sodipodi-0.dtd"
   xmlns:inkscape="http://www.inkscape.org/namespaces/inkscape"
   version="1.1"
   id="Слой_1"
   x="0px"
   y="0px"
   viewBox="0 0 128 128"
   style="enable-background:new 0 0 128 128;"
   xml:space="preserve"
   sodipodi:docname="Release Icon.svg"
   inkscape:version="1.0.2 (e86c870879, 2021-01-15, custom)"><metadata
   id="metadata21"><rdf:RDF><cc:Work
       rdf:about=""><dc:format>image/svg+xml</dc:format><dc:type
         rdf:resource="http://purl.org/dc/dcmitype/StillImage" /><dc:title></dc:title></cc:Work></rdf:RDF></metadata><defs
   id="defs19" /><sodipodi:namedview
   pagecolor="#ffffff"
   bordercolor="#666666"
   borderopacity="1"
   objecttolerance="10"
   gridtolerance="10"
   guidetolerance="10"
   inkscape:pageopacity="0"
   inkscape:pageshadow="2"
   inkscape:window-width="1920"
   inkscape:window-height="1010"
   id="namedview17"
   showgrid="false"
   inkscape:zoom="3.3007813"
   inkscape:cx="53.229558"
   inkscape:cy="27.955535"
   inkscape:window-x="-7"
   inkscape:window-y="-7"
   inkscape:window-maximized="1"
   inkscape:current-layer="Слой_1" />
<style
   type="text/css"
   id="style2">
	.st0{fill:#232323;}
</style>
<g
   id="g14"
   transform="matrix(1.0374902,0,0,1.0347243,-4.603715,-2.3058675)">
	<path
   class="st0"
   d="m 92,49.8 c 3,0 5.9,-1.2 8,-3.3 2.1,-2.1 3.3,-5 3.3,-8 0,-3 -1.2,-5.9 -3.3,-8 -2.1,-2.1 -5,-3.3 -8,-3.3 -3,0 -5.9,1.2 -8,3.3 -2.1,2.1 -3.3,5 -3.3,8 0,3 1.2,5.9 3.3,8 2.2,2.1 5,3.3 8,3.3 z M 88.1,34.5 c 1,-1 2.4,-1.6 3.9,-1.6 1.5,0 2.9,0.6 3.9,1.6 2.2,2.2 2.2,5.7 0,7.8 v 0 c -1,1 -2.4,1.6 -3.9,1.6 -1.5,0 -2.9,-0.6 -3.9,-1.6 -1,-1 -1.6,-2.4 -1.6,-3.9 0,-1.4 0.6,-2.8 1.6,-3.9 z"
   id="path4" />
	<path
   class="st0"
   d="M 28.6,79.5 C 28,78.9 27.3,78.7 26.5,78.7 25.7,78.7 25,79 24.4,79.5 l -18.9,19 c -1.1,1.1 -1.1,3 0,4.1 1.1,1.1 3,1.1 4.1,0 L 28.7,83.5 c 0.5,-0.5 0.8,-1.3 0.8,-2.1 0,-0.6 -0.3,-1.4 -0.9,-1.9 z"
   id="path6" />
	<path
   class="st0"
   d="M 33.7,96.9 C 33.2,96.4 32.4,96 31.6,96 c -0.8,0 -1.5,0.3 -2.1,0.9 L 9.7,116.8 c -0.5,0.5 -0.9,1.3 -0.9,2 0,0.8 0.3,1.5 0.9,2 1.1,1.1 3,1.1 4.1,0 L 33.7,101 c 0.5,-0.5 0.8,-1.3 0.8,-2 0.1,-0.8 -0.2,-1.5 -0.8,-2.1 z"
   id="path8" />
	<path
   class="st0"
   d="m 49.1,101.2 c -0.8,0 -1.5,0.3 -2.1,0.8 l -19,19.1 c -0.5,0.5 -0.9,1.3 -0.9,2 0,0.8 0.3,1.5 0.9,2.1 1.1,1.1 3,1.1 4.1,0 l 19.1,-19.1 c 0.5,-0.5 0.8,-1.3 0.8,-2 0,-0.8 -0.3,-1.5 -0.8,-2.1 -0.6,-0.5 -1.3,-0.8 -2.1,-0.8 z"
   id="path10" />
	<path
   class="st0"
   d="m 124.6,2.7 c -0.4,0.1 -9.5,1.6 -21.9,6.3 -7.3,2.8 -14.2,6.1 -20.6,9.9 -7.8,4.6 -14.8,10 -20.8,15.9 l -0.1,0.1 h -0.1 l -24.9,4.8 c -0.6,0.1 -1.1,0.4 -1.5,0.8 L 12.2,63.1 c -0.9,0.9 -1.1,2.3 -0.5,3.4 0.6,1.1 1.8,1.7 3.1,1.5 L 41,62.9 40.6,63.6 c -1.7,3.2 -3.2,6.6 -4.6,10.1 -0.4,1.1 -0.2,2.3 0.6,3.2 l 6.5,6.5 -6.1,6.1 c -0.5,0.5 -0.8,1.3 -0.8,2.1 0,0.8 0.3,1.5 0.8,2 1.1,1.1 3,1.1 4.1,0 l 6.1,-6.1 6.5,6.5 c 0.8,0.8 2.1,1.1 3.2,0.6 3.4,-1.4 6.8,-3 10.1,-4.6 l 0.7,-0.4 -5.1,26.2 c -0.2,1.3 0.4,2.5 1.5,3.1 1.1,0.6 2.5,0.4 3.4,-0.5 L 90,95.8 c 0.4,-0.4 0.7,-0.9 0.8,-1.5 l 4.9,-25 0.1,-0.1 c 5.9,-6 11.3,-13 15.9,-20.8 3.8,-6.4 7.1,-13.3 9.9,-20.6 C 126.3,15.9 127.8,7 128,6 c 0.1,-0.9 -0.2,-1.9 -0.8,-2.5 -0.7,-0.7 -1.6,-1 -2.6,-0.8 z M 23,60.5 38.2,45.4 54.7,42.2 54,43 c -3.3,4 -6.4,8.5 -9.2,13.1 l -0.1,0.2 z m 62.3,31.9 -15.1,15.2 4.2,-21.7 0.2,-0.1 c 4.7,-2.8 9.1,-5.9 13.1,-9.2 l 0.8,-0.7 z M 121.2,9.9 c -0.9,3.7 -2.5,9.4 -5,16.1 -4.2,10.9 -11.9,26.6 -24.9,39.6 -5.9,5.9 -12.9,11.3 -20.8,15.9 -0.1,0.1 -0.3,0.1 -0.4,0.2 -4.2,2.4 -8.7,4.7 -13.4,6.7 l -0.2,0.1 -5.1,-5.1 9.7,-9.7 c 0.5,-0.5 0.9,-1.3 0.9,-2.1 0,-0.8 -0.3,-1.5 -0.9,-2 -1.1,-1.1 -3,-1.1 -4.1,0 l -9.7,9.7 -5.1,-5.1 0.1,-0.2 c 2,-4.7 4.3,-9.2 6.7,-13.4 0.1,-0.1 0.2,-0.3 0.2,-0.4 4.6,-7.9 9.9,-14.9 15.9,-20.8 13,-13 28.7,-20.7 39.6,-24.8 6.7,-2.6 12.4,-4.2 16.1,-5 l 0.6,-0.2 z"
   id="path12" />
</g>
</svg>
